<mxfile host="65bd71144e">
    <diagram id="wTlRWTGCIJM6rg0ZdpP8" name="Seite-1">
        <mxGraphModel dx="986" dy="354" grid="1" gridSize="10" guides="1" tooltips="1" connect="1" arrows="1" fold="1" page="1" pageScale="1" pageWidth="827" pageHeight="1169" math="0" shadow="0">
            <root>
                <mxCell id="0"/>
                <mxCell id="1" parent="0"/>
                <mxCell id="2" value="" style="fontStyle=1;align=center;verticalAlign=middle;childLayout=stackLayout;horizontal=1;horizontalStack=0;resizeParent=1;resizeParentMax=0;resizeLast=0;marginBottom=0;rounded=1;absoluteArcSize=1;arcSize=22;" vertex="1" parent="1">
                    <mxGeometry x="314" y="200" width="236" height="72" as="geometry"/>
                </mxCell>
                <mxCell id="3" value="Stufe 1" style="html=1;align=center;spacing=0;verticalAlign=middle;strokeColor=none;fillColor=none;whiteSpace=wrap;" vertex="1" parent="2">
                    <mxGeometry width="236" height="20" as="geometry"/>
                </mxCell>
                <mxCell id="4" value="" style="line;strokeWidth=0.25;fillColor=none;align=left;verticalAlign=middle;spacingTop=-1;spacingLeft=3;spacingRight=3;rotatable=0;labelPosition=right;points=[];portConstraint=eastwest;" vertex="1" parent="2">
                    <mxGeometry y="20" width="236" height="8" as="geometry"/>
                </mxCell>
                <mxCell id="5" value="" style="html=1;align=left;spacing=0;spacingLeft=10;verticalAlign=middle;strokeColor=none;fillColor=none;whiteSpace=wrap;" vertex="1" parent="2">
                    <mxGeometry y="28" width="236" height="10" as="geometry"/>
                </mxCell>
                <mxCell id="7" value="do / langsames Drehen" style="html=1;align=left;spacing=0;spacingLeft=10;verticalAlign=middle;strokeColor=none;fillColor=none;whiteSpace=wrap;" vertex="1" parent="2">
                    <mxGeometry y="38" width="236" height="14" as="geometry"/>
                </mxCell>
                <mxCell id="9" value="" style="html=1;align=left;spacing=0;spacingLeft=10;verticalAlign=middle;strokeColor=none;fillColor=none;whiteSpace=wrap;" vertex="1" parent="2">
                    <mxGeometry y="52" width="236" height="20" as="geometry"/>
                </mxCell>
                <mxCell id="11" value="" style="fontStyle=1;align=center;verticalAlign=middle;childLayout=stackLayout;horizontal=1;horizontalStack=0;resizeParent=1;resizeParentMax=0;resizeLast=0;marginBottom=0;rounded=1;absoluteArcSize=1;arcSize=22;" vertex="1" parent="1">
                    <mxGeometry x="320" y="390" width="240" height="72" as="geometry"/>
                </mxCell>
                <mxCell id="12" value="Stufe 2" style="html=1;align=center;spacing=0;verticalAlign=middle;strokeColor=none;fillColor=none;whiteSpace=wrap;" vertex="1" parent="11">
                    <mxGeometry width="240" height="20" as="geometry"/>
                </mxCell>
                <mxCell id="13" value="" style="line;strokeWidth=0.25;fillColor=none;align=left;verticalAlign=middle;spacingTop=-1;spacingLeft=3;spacingRight=3;rotatable=0;labelPosition=right;points=[];portConstraint=eastwest;" vertex="1" parent="11">
                    <mxGeometry y="20" width="240" height="8" as="geometry"/>
                </mxCell>
                <mxCell id="14" value="" style="html=1;align=left;spacing=0;spacingLeft=10;verticalAlign=middle;strokeColor=none;fillColor=none;whiteSpace=wrap;" vertex="1" parent="11">
                    <mxGeometry y="28" width="240" height="10" as="geometry"/>
                </mxCell>
                <mxCell id="16" value="do / schnellesDrehen" style="html=1;align=left;spacing=0;spacingLeft=10;verticalAlign=middle;strokeColor=none;fillColor=none;whiteSpace=wrap;" vertex="1" parent="11">
                    <mxGeometry y="38" width="240" height="14" as="geometry"/>
                </mxCell>
                <mxCell id="18" value="" style="html=1;align=left;spacing=0;spacingLeft=10;verticalAlign=middle;strokeColor=none;fillColor=none;whiteSpace=wrap;" vertex="1" parent="11">
                    <mxGeometry y="52" width="240" height="20" as="geometry"/>
                </mxCell>
                <mxCell id="19" value="" style="shape=ellipse;html=1;fillColor=strokeColor;fontSize=18;fontColor=#ffffff;" vertex="1" parent="1">
                    <mxGeometry x="110" y="230" width="30" height="30" as="geometry"/>
                </mxCell>
                <mxCell id="22" value="stufe 1 wählen" style="edgeStyle=none;html=1;endArrow=open;endSize=12;strokeWidth=3;verticalAlign=bottom;entryX=0;entryY=0.5;entryDx=0;entryDy=0;" edge="1" parent="1" target="7">
                    <mxGeometry width="160" relative="1" as="geometry">
                        <mxPoint x="140" y="244.5" as="sourcePoint"/>
                        <mxPoint x="300" y="244.5" as="targetPoint"/>
                        <mxPoint as="offset"/>
                    </mxGeometry>
                </mxCell>
                <mxCell id="23" value="ausschalten" style="edgeStyle=none;html=1;endArrow=open;endSize=12;strokeWidth=3;verticalAlign=bottom;exitX=1;exitY=0.25;exitDx=0;exitDy=0;entryX=0;entryY=0.5;entryDx=0;entryDy=0;entryPerimeter=0;" edge="1" parent="1" source="7" target="26">
                    <mxGeometry width="160" relative="1" as="geometry">
                        <mxPoint x="514" y="244.5" as="sourcePoint"/>
                        <mxPoint x="690" y="245" as="targetPoint"/>
                    </mxGeometry>
                </mxCell>
                <mxCell id="24" value="stufe 2 wählen" style="edgeStyle=none;html=1;endArrow=open;endSize=12;strokeWidth=3;verticalAlign=bottom;exitX=0.25;exitY=1;exitDx=0;exitDy=0;entryX=0.217;entryY=0.15;entryDx=0;entryDy=0;entryPerimeter=0;" edge="1" parent="1" source="9" target="12">
                    <mxGeometry width="160" relative="1" as="geometry">
                        <mxPoint x="420" y="320" as="sourcePoint"/>
                        <mxPoint x="580" y="320" as="targetPoint"/>
                    </mxGeometry>
                </mxCell>
                <mxCell id="25" value="stufe 1 wählen" style="edgeStyle=none;html=1;endArrow=open;endSize=12;strokeWidth=3;verticalAlign=bottom;exitX=0.82;exitY=-0.15;exitDx=0;exitDy=0;entryX=0.847;entryY=0.983;entryDx=0;entryDy=0;exitPerimeter=0;entryPerimeter=0;" edge="1" parent="1" source="12" target="9">
                    <mxGeometry width="160" relative="1" as="geometry">
                        <mxPoint x="420" y="320" as="sourcePoint"/>
                        <mxPoint x="580" y="320" as="targetPoint"/>
                    </mxGeometry>
                </mxCell>
                <mxCell id="26" value="" style="shape=mxgraph.sysml.actFinal;html=1;verticalLabelPosition=bottom;labelBackgroundColor=#ffffff;verticalAlign=top;" vertex="1" parent="1">
                    <mxGeometry x="740" y="220" width="40" height="40" as="geometry"/>
                </mxCell>
                <mxCell id="27" value="sm" style="shape=umlFrame;whiteSpace=wrap;html=1;pointerEvents=0;" vertex="1" parent="1">
                    <mxGeometry x="40" y="150" width="770" height="350" as="geometry"/>
                </mxCell>
            </root>
        </mxGraphModel>
    </diagram>
</mxfile>